HIERARCHY
ROOT Elbow
{
	OFFSET	0.00	0.00	0.00
	CHANNELS 6 Xposition Yposition Zposition Zrotation Xrotation Yrotation
	JOINT L_Wrist
	{
		OFFSET	 0.208349	 0.000000	 0.000000
		CHANNELS 3 Zrotation Xrotation Yrotation
		JOINT L_index_Proximal
		{
			OFFSET	 0.093499	 0.010637	-0.002083
			CHANNELS 3 Zrotation Xrotation Yrotation
			JOINT L_index_b
			{
				OFFSET	 0.033152	 0.000000	 0.000000
				CHANNELS 3 Zrotation Xrotation Yrotation
				JOINT L_index_c
				{
					OFFSET	 0.018651	 0.000000	 0.000000
					CHANNELS 3 Zrotation Xrotation Yrotation
					End Site
					{
						OFFSET	 0.018651	 0.000000	 0.000000
					}
				}
			}
		}
		JOINT L_middle_Proximal
		{
			OFFSET	 0.090632	-0.006115	-0.003750
			CHANNELS 3 Zrotation Xrotation Yrotation
			JOINT L_middle_b
			{
				OFFSET	 0.037194	 0.000000	 0.000000
				CHANNELS 3 Zrotation Xrotation Yrotation
				JOINT L_middle_c
				{
					OFFSET	 0.021943	 0.000000	 0.000000
					CHANNELS 3 Zrotation Xrotation Yrotation
					End Site
					{
						OFFSET	 0.021943	 0.000000	 0.000000
					}
				}
			}
		}
		JOINT L_pinky_Proximal
		{
			OFFSET	 0.074015	-0.035449	-0.000417
			CHANNELS 3 Zrotation Xrotation Yrotation
			JOINT L_pinky_b
			{
				OFFSET	 0.027285	 0.000000	 0.000000
				CHANNELS 3 Zrotation Xrotation Yrotation
				JOINT L_pinky_c
				{
					OFFSET	 0.015093	 0.000000	 0.000000
					CHANNELS 3 Zrotation Xrotation Yrotation
					End Site
					{
						OFFSET	 0.015093	 0.000000	 0.000000
					}
				}
			}
		}
		JOINT L_ring_Proximal
		{
			OFFSET	 0.082801	-0.021859	-0.003750
			CHANNELS 3 Zrotation Xrotation Yrotation
			JOINT L_ring_b
			{
				OFFSET	 0.034478	 0.000000	 0.000000
				CHANNELS 3 Zrotation Xrotation Yrotation
				JOINT L_ring_c
				{
					OFFSET	 0.021377	 0.000000	 0.000000
					CHANNELS 3 Zrotation Xrotation Yrotation
					End Site
					{
						OFFSET	 0.021377	 0.000000	 0.000000
					}
				}
			}
		}
		JOINT L_thumb_Proximal
		{
			OFFSET	 0.030306	 0.018528	 0.004584
			CHANNELS 3 Zrotation Xrotation Yrotation
			JOINT L_thumb_a
			{
				OFFSET	 0.038520	 0.000000	 0.000000
				CHANNELS 3 Zrotation Xrotation Yrotation
				JOINT L_thumb_b
				{
					OFFSET	 0.026310	 0.000000	 0.000000
					CHANNELS 3 Zrotation Xrotation Yrotation
					End Site
					{
						OFFSET	 0.026310	 0.000000	 0.000000
					}
				}
			}
		}
	}
}
MOTION
Frames:    7
Frame Time: 0.01666667
 0.689646	-0.114544	 0.841464	-117.138700	 11.291750	-178.973900	-6.665400	-5.630249	-33.993280	-3.503644	 1.944979	-53.966360	-3.704098	 1.949587	-55.508870	-4.446259	 1.628058	-40.208170	-14.558040	-5.310064	-57.371070	-2.787159	 1.840001	-66.859160	-5.408714	 2.484912	-49.324510	-33.133140	-16.840830	-47.928250	-2.815045	 1.704574	-62.386570	 0.142065	-0.075224	-55.789500	-22.618450	-9.117967	-54.116770	-4.297338	 3.088680	-71.401700	-4.528962	 2.027484	-48.216900	 31.239350	 61.082460	-36.468290	-2.021160	 0.291900	-16.434620	 0.487423	-0.106026	-24.544000
 0.689646	-0.114544	 0.841464	-117.138700	 11.291840	-178.973800	-6.665496	-5.630229	-33.993230	-3.503608	 1.944941	-53.966300	-3.704037	 1.949557	-55.508750	-4.446230	 1.628045	-40.208010	-14.558080	-5.310046	-57.371060	-2.787109	 1.839964	-66.859060	-5.408609	 2.484860	-49.324510	-33.133120	-16.840850	-47.928110	-2.815075	 1.704597	-62.386530	 0.142130	-0.075256	-55.789360	-22.618470	-9.117959	-54.116710	-4.297404	 3.088712	-71.401580	-4.528991	 2.027493	-48.216820	 31.239260	 61.082470	-36.468300	-2.021143	 0.291886	-16.434590	 0.487412	-0.106021	-24.543940
 0.689640	-0.114697	 0.842318	-117.484000	 11.174300	-178.606500	-6.182250	-5.516982	-33.214760	-3.745800	 2.111607	-54.658970	-3.898916	 2.095743	-56.480260	-4.548999	 1.664402	-40.162970	-14.301390	-5.474247	-57.549020	-2.855652	 1.904899	-67.405690	-5.719161	 2.639303	-49.515010	-32.896270	-16.936170	-48.390170	-2.678020	 1.628938	-62.615350	 0.348284	-0.184619	-55.863800	-22.380160	-9.269675	-54.099840	-3.956497	 2.869366	-71.891610	-4.531816	 2.045496	-48.571010	 31.309530	 61.039290	-36.757620	-1.952454	 0.286548	-16.691650	 0.611879	-0.134600	-24.831600
 0.689464	-0.113953	 0.843285	-117.345800	 11.101330	-178.525000	-6.201890	-5.478080	-32.949000	-3.376848	 1.852826	-54.181790	-3.785634	 2.015507	-56.050470	-4.692454	 1.718223	-40.205220	-14.220440	-5.538300	-57.606360	-2.531741	 1.693165	-67.542490	-5.387820	 2.486799	-49.527190	-32.723300	-17.045960	-48.231140	-2.531859	 1.540355	-62.626330	 0.419634	-0.222783	-55.927410	-22.336610	-9.307340	-54.180580	-3.926926	 2.839182	-71.723940	-4.614186	 2.073030	-48.367870	 30.466130	 61.180800	-36.526580	-2.099644	 0.297926	-16.145060	 0.225306	-0.048598	-24.373890
 0.690532	-0.115619	 0.843009	-117.529400	 10.196720	-178.701100	-5.825262	-5.403360	-32.440910	-4.802824	 2.819762	-56.264640	-6.430800	 3.470933	-56.664940	-4.834350	 1.757776	-39.937820	-13.536530	-5.998161	-57.558800	-3.126277	 2.102584	-67.844670	-6.385351	 2.909314	-48.955750	-32.472000	-17.144380	-48.870790	-2.899151	 1.753295	-62.321970	-0.175704	 0.094090	-56.449070	-21.409350	-9.906487	-53.234540	-3.927511	 2.893468	-72.749660	-3.983273	 1.831579	-49.372810	 32.849880	 60.755530	-36.645420	-2.124714	 0.319607	-17.105840	-0.359158	 0.085844	-26.975910
 0.689829	-0.113653	 0.845051	-117.253200	 9.679816	-178.635200	-5.842528	-5.321020	-31.884320	-3.501232	 1.956648	-55.184490	-3.272378	 1.805942	-57.721660	-3.928334	 1.448797	-40.461150	-13.770670	-5.819485	-58.012860	-1.912434	 1.301230	-68.464680	-5.193910	 2.397597	-49.535580	-32.017200	-17.381430	-48.663620	-2.112653	 1.303302	-63.328630	 0.414183	-0.220191	-55.974790	-21.735130	-9.680000	-54.154520	-3.508874	 2.566118	-72.349070	-3.965691	 1.796096	-48.720780	 31.748120	 60.944460	-36.678040	-1.779805	 0.250769	-16.024580	-0.333949	 0.073260	-24.581370
 0.689335	-0.111891	 0.847478	-116.988100	 9.341342	-178.667500	-5.836767	-5.236042	-31.313760	-2.915368	 1.580417	-54.719570	-2.902910	 1.606812	-57.920500	-3.499650	 1.292838	-40.537530	-13.646830	-5.876082	-58.435700	-1.453158	 0.999378	-69.034030	-4.365302	 2.012732	-49.492330	-31.694830	-17.547000	-48.474080	-1.942125	 1.209556	-63.823670	 0.645720	-0.341838	-55.795930	-21.680930	-9.695979	-54.534630	-3.287773	 2.412118	-72.524840	-3.966010	 1.780366	-48.337520	 31.867160	 60.924740	-36.738150	-2.100082	 0.285694	-15.488830	-0.552509	 0.117850	-24.066640
